# xmcd CD database file
#
# Track frame offsets:
#	150
#	28085
#	57982
#	97820
#	122302
#	149745
#	183142
#	214292
#	244237
#	271825
#
# Disc length: 4016 seconds
#
# Revision: 0
# Processed by: cddbd v1.5.2PL0 Copyright (c) Steve Scherf et al.
# Submitted via: CDex 1.70beta2
#
DISCID=8c0fae0a
DTITLE=Gust William Tsilis - Heritage
DYEAR=1991
DGENRE=Jazz
TTITLE0=Fee-fi-fo-fum
TTITLE1=Sweet Dulcinea
TTITLE2=Minor league
TTITLE3=Where are you ?
TTITLE4=Mr. Syms
TTITLE5=Skylark
TTITLE6=You don't know what love is
TTITLE7=The moon and you
TTITLE8=Beautiful love
TTITLE9=Improvalostic
EXTD=YEAR: 1991
EXTT0=
EXTT1=
EXTT2=
EXTT3=
EXTT4=
EXTT5=
EXTT6=
EXTT7=
EXTT8=
EXTT9=
PLAYORDER=
